name ./resultDataOpenSim/trcMotMarkerGrf/sub06/grf-01-07.mot
datacolumns 19
datarows 25
range 0.97600000 1.07200000
endheader

                time	     ground_force_vx	     ground_force_vy	     ground_force_vz	     ground_force_px	     ground_force_py	     ground_force_pz	   l_ground_force_vx	   l_ground_force_vy	   l_ground_force_vz	   l_ground_force_px	   l_ground_force_py	   l_ground_force_pz	     ground_torque_x	     ground_torque_y	     ground_torque_z	   l_ground_torque_x	   l_ground_torque_y	   l_ground_torque_z	
          0.97600000	          0.00000000	          0.00000000	          0.00000000	          0.00000000	          0.00000000	          0.00000000	         67.45249334	        551.01586820	         30.00385501	          0.05907388	          0.00000000	         -0.05505842	          0.00000000	          0.00000000	          0.00000000	          0.00000000	         -2.16243009	          0.00000000	
          0.98000000	          0.00000000	          0.00000000	          0.00000000	          0.00000000	          0.00000000	          0.00000000	         72.00198629	        567.20352022	         32.24473951	          0.05934731	          0.00000000	         -0.05518239	          0.00000000	          0.00000000	          0.00000000	          0.00000000	         -2.15411031	          0.00000000	
          0.98400000	          0.00000000	          0.00000000	          0.00000000	          0.00000000	          0.00000000	          0.00000000	         76.79894976	        583.97725122	         34.56659236	          0.05962241	          0.00000000	         -0.05529368	          0.00000000	          0.00000000	          0.00000000	          0.00000000	         -2.14148256	          0.00000000	
          0.98800000	          0.00000000	          0.00000000	          0.00000000	          0.00000000	          0.00000000	          0.00000000	         81.89753777	        601.18233187	         36.87971184	          0.05985017	          0.00000000	         -0.05538735	          0.00000000	          0.00000000	          0.00000000	          0.00000000	         -2.12930879	          0.00000000	
          0.99200000	          0.00000000	          0.00000000	          0.00000000	          0.00000000	          0.00000000	          0.00000000	         87.32394044	        618.58590650	         39.08563692	          0.06003448	          0.00000000	         -0.05544981	          0.00000000	          0.00000000	          0.00000000	          0.00000000	         -2.12321475	          0.00000000	
          0.99600000	          0.00000000	          0.00000000	          0.00000000	          0.00000000	          0.00000000	          0.00000000	         93.06244944	        635.91645753	         41.09900988	          0.06020451	          0.00000000	         -0.05547580	          0.00000000	          0.00000000	          0.00000000	          0.00000000	         -2.12861009	          0.00000000	
          1.00000000	          0.00000000	          0.00000000	          0.00000000	          0.00000000	          0.00000000	          0.00000000	         99.05595085	        652.87291106	         42.85572895	          0.06036877	          0.00000000	         -0.05547750	          0.00000000	          0.00000000	          0.00000000	          0.00000000	         -2.14959787	          0.00000000	
          1.00400000	          0.00000000	          0.00000000	          0.00000000	          0.00000000	          0.00000000	          0.00000000	        105.24021674	        669.12839183	         44.30784593	          0.06054380	          0.00000000	         -0.05544804	          0.00000000	          0.00000000	          0.00000000	          0.00000000	         -2.18822075	          0.00000000	
          1.00800000	          0.00000000	          0.00000000	          0.00000000	          0.00000000	          0.00000000	          0.00000000	        111.57380492	        684.37347052	         45.42657820	          0.06079621	          0.00000000	         -0.05536342	          0.00000000	          0.00000000	          0.00000000	          0.00000000	         -2.24419627	          0.00000000	
          1.01200000	          0.00000000	          0.00000000	          0.00000000	          0.00000000	          0.00000000	          0.00000000	        118.03390751	        698.35088938	         46.21798339	          0.06119220	          0.00000000	         -0.05522295	          0.00000000	          0.00000000	          0.00000000	          0.00000000	         -2.31511180	          0.00000000	
          1.01600000	          0.00000000	          0.00000000	          0.00000000	          0.00000000	          0.00000000	          0.00000000	        124.60958499	        710.86488929	         46.71308401	          0.06173866	          0.00000000	         -0.05503484	          0.00000000	          0.00000000	          0.00000000	          0.00000000	         -2.39692868	          0.00000000	
          1.02000000	          0.00000000	          0.00000000	          0.00000000	          0.00000000	          0.00000000	          0.00000000	        131.30046460	        721.79375000	         46.94097573	          0.06238485	          0.00000000	         -0.05481341	          0.00000000	          0.00000000	          0.00000000	          0.00000000	         -2.48456804	          0.00000000	
          1.02400000	          0.00000000	          0.00000000	          0.00000000	          0.00000000	          0.00000000	          0.00000000	        138.11051566	        731.08386666	         46.93069505	          0.06307823	          0.00000000	         -0.05457474	          0.00000000	          0.00000000	          0.00000000	          0.00000000	         -2.57238831	          0.00000000	
          1.02800000	          0.00000000	          0.00000000	          0.00000000	          0.00000000	          0.00000000	          0.00000000	        145.04213941	        738.70132793	         46.73296516	          0.06377527	          0.00000000	         -0.05433886	          0.00000000	          0.00000000	          0.00000000	          0.00000000	         -2.65453589	          0.00000000	
          1.03200000	          0.00000000	          0.00000000	          0.00000000	          0.00000000	          0.00000000	          0.00000000	        152.07674868	        744.57405665	         46.42251830	          0.06445205	          0.00000000	         -0.05412117	          0.00000000	          0.00000000	          0.00000000	          0.00000000	         -2.72527291	          0.00000000	
          1.03600000	          0.00000000	          0.00000000	          0.00000000	          0.00000000	          0.00000000	          0.00000000	        159.14583970	        748.57291425	         46.07357739	          0.06511710	          0.00000000	         -0.05391508	          0.00000000	          0.00000000	          0.00000000	          0.00000000	         -2.77934311	          0.00000000	
          1.04000000	          0.00000000	          0.00000000	          0.00000000	          0.00000000	          0.00000000	          0.00000000	        166.13321744	        750.54696743	         45.73478183	          0.06579803	          0.00000000	         -0.05370033	          0.00000000	          0.00000000	          0.00000000	          0.00000000	         -2.81234684	          0.00000000	
          1.04400000	          0.00000000	          0.00000000	          0.00000000	          0.00000000	          0.00000000	          0.00000000	        172.91369811	        750.37937944	         45.42369170	          0.06651857	          0.00000000	         -0.05346352	          0.00000000	          0.00000000	          0.00000000	          0.00000000	         -2.82109219	          0.00000000	
          1.04800000	          0.00000000	          0.00000000	          0.00000000	          0.00000000	          0.00000000	          0.00000000	        179.38840748	        748.01538287	         45.13479415	          0.06728624	          0.00000000	         -0.05320455	          0.00000000	          0.00000000	          0.00000000	          0.00000000	         -2.80392892	          0.00000000	
          1.05200000	          0.00000000	          0.00000000	          0.00000000	          0.00000000	          0.00000000	          0.00000000	        185.49246288	        743.45639282	         44.84904701	          0.06809319	          0.00000000	         -0.05293115	          0.00000000	          0.00000000	          0.00000000	          0.00000000	         -2.76104035	          0.00000000	
          1.05600000	          0.00000000	          0.00000000	          0.00000000	          0.00000000	          0.00000000	          0.00000000	        191.18394354	        736.73709302	         44.54013028	          0.06892114	          0.00000000	         -0.05264417	          0.00000000	          0.00000000	          0.00000000	          0.00000000	         -2.69458712	          0.00000000	
          1.06000000	          0.00000000	          0.00000000	          0.00000000	          0.00000000	          0.00000000	          0.00000000	        196.43098330	        727.88087075	         44.17405889	          0.06974650	          0.00000000	         -0.05233404	          0.00000000	          0.00000000	          0.00000000	          0.00000000	         -2.60857291	          0.00000000	
          1.06400000	          0.00000000	          0.00000000	          0.00000000	          0.00000000	          0.00000000	          0.00000000	        201.20288516	        716.84712238	         43.70181161	          0.07055904	          0.00000000	         -0.05199528	          0.00000000	          0.00000000	          0.00000000	          0.00000000	         -2.50836342	          0.00000000	
          1.06800000	          0.00000000	          0.00000000	          0.00000000	          0.00000000	          0.00000000	          0.00000000	        205.46206531	        703.51443116	         43.05625582	          0.07138684	          0.00000000	         -0.05162853	          0.00000000	          0.00000000	          0.00000000	          0.00000000	         -2.39989846	          0.00000000	
          1.07200000	          0.00000000	          0.00000000	          0.00000000	          0.00000000	          0.00000000	          0.00000000	        209.15533062	        687.71712857	         42.16457944	          0.07228252	          0.00000000	         -0.05123396	          0.00000000	          0.00000000	          0.00000000	          0.00000000	         -2.28876102	          0.00000000	
